<svg width="7835" height="1468" viewBox="0 0 7835 1468" fill="none" xmlns="http://www.w3.org/2000/svg">
<path d="M482.615 33.8596C271.929 97.8178 136.488 195.636 83.8162 319.79C19.858 477.805 57.4805 605.721 223.019 775.022C381.034 940.561 362.223 1057.19 162.823 1121.15C83.8162 1147.49 8.57126 1173.82 1.04677 1181.35C-6.47773 1188.87 27.3825 1256.59 76.2917 1331.84C177.872 1493.61 271.929 1504.9 512.713 1388.27C693.3 1297.98 821.217 1128.67 821.217 974.422C821.217 910.463 761.021 801.358 670.727 692.253C493.901 477.805 490.139 379.986 651.916 327.315C715.874 308.504 768.545 285.93 776.07 282.168C783.594 278.406 757.259 210.685 723.398 135.44C655.678 -3.76291 636.867 -11.2874 482.615 33.8596Z" fill="#460000"/>
<path d="M3341.92 733.639V1467.28H3511.22H3680.53V733.639V0.000515461H3511.22H3341.92V733.639Z" fill="#460000"/>
<path d="M3966.46 357.414C3894.97 432.659 3891.21 455.233 3955.17 541.765C4052.99 677.206 4271.2 526.716 4184.67 383.75C4128.23 297.218 4041.7 285.932 3966.46 357.414Z" fill="#460000"/>
<path d="M1246.35 507.903C892.701 662.156 888.938 1215.21 1238.83 1392.03C1415.65 1482.33 1502.18 1486.09 1660.2 1407.08C1739.21 1361.93 1780.59 1358.17 1791.88 1388.27C1799.4 1410.84 1885.93 1429.65 1987.51 1429.65H2171.87L2168.1 978.184C2164.34 549.288 2160.58 522.952 2085.33 507.903C1942.37 477.805 1893.46 477.805 1829.5 504.141C1795.64 519.19 1735.44 515.428 1690.3 492.854C1588.72 436.421 1393.08 443.945 1246.35 507.903ZM1758.02 872.841C1810.69 963.135 1810.69 978.184 1746.73 1049.67C1660.2 1143.72 1509.71 1151.25 1415.65 1064.72C1329.12 989.471 1329.12 910.464 1411.89 820.17C1505.95 714.827 1686.54 744.925 1758.02 872.841Z" fill="#460000"/>
<path d="M2533.04 485.331C2427.7 500.38 2386.31 526.716 2397.6 564.338C2405.12 594.436 2420.17 801.36 2431.46 1023.33L2450.27 1429.66H2630.86H2811.45L2822.73 1155.01L2834.02 884.129L2995.8 872.843L3153.81 861.556V669.681V481.569L3033.42 496.618C2965.7 507.904 2879.17 526.716 2845.31 545.527C2796.4 564.338 2777.59 556.814 2777.59 511.667C2777.59 447.708 2773.82 447.708 2533.04 485.331Z" fill="#460000"/>
<path d="M4579.7 575.625C4369.02 714.828 4308.82 1049.67 4451.78 1252.83C4587.23 1448.47 4899.49 1531.24 5057.51 1410.84C5151.56 1339.36 5185.42 1339.36 5185.42 1410.84C5185.42 1452.23 5226.81 1467.28 5328.39 1467.28C5403.63 1467.28 5486.4 1452.23 5512.74 1437.18C5542.84 1418.37 5557.89 1264.12 5565.41 978.185L5569.17 545.527L5411.16 515.429C5298.29 492.855 5241.86 496.617 5223.05 526.715C5200.47 560.576 5174.14 560.576 5117.7 530.478C4982.26 458.995 4718.9 481.568 4579.7 575.625ZM5147.8 861.555C5208 978.185 5192.95 1045.91 5091.37 1113.63C4955.93 1203.92 4771.58 1124.91 4771.58 981.947C4771.58 846.506 4835.53 790.073 4986.02 790.073C5068.79 790.073 5121.46 812.646 5147.8 861.555Z" fill="#460000"/>
<path d="M5870.15 515.428C5764.81 530.477 5749.76 541.764 5772.33 613.247C5787.38 654.632 5802.43 850.269 5806.19 1042.14C5809.96 1237.78 5832.53 1414.61 5851.34 1433.42C5873.92 1455.99 5956.68 1467.28 6035.69 1459.75L6182.42 1448.47L6193.71 1185.11C6204.99 899.178 6231.33 865.317 6419.44 865.317C6539.83 865.317 6539.83 865.317 6539.83 677.205C6539.83 466.519 6513.5 451.47 6295.29 541.764C6178.66 590.673 6163.61 590.673 6163.61 541.764C6163.61 489.093 6122.22 485.33 5870.15 515.428Z" fill="#460000"/>
<path d="M6870.91 549.288C6731.71 620.771 6652.7 786.31 6652.7 996.995C6652.7 1335.6 7025.17 1568.86 7318.62 1414.61C7420.2 1365.7 7439.01 1361.93 7457.82 1410.84C7480.4 1471.04 7691.08 1489.85 7770.09 1437.18C7796.43 1418.37 7815.24 1256.59 7822.76 978.184L7834.05 545.526L7668.51 515.428C7548.12 489.092 7499.21 496.616 7476.64 534.239C7454.06 571.861 7435.25 571.861 7397.63 534.239C7333.67 470.281 6995.07 477.805 6870.91 549.288ZM7397.63 835.219C7476.64 914.226 7450.3 1045.9 7344.96 1117.39C7254.66 1173.82 7235.85 1173.82 7145.56 1124.91C7036.45 1064.72 6998.83 929.275 7066.55 842.743C7122.98 778.785 7333.67 771.261 7397.63 835.219Z" fill="#460000"/>
<path d="M3917.55 1049.67C3943.88 1264.11 4022.89 1403.32 4139.52 1444.7C4274.96 1493.61 4293.77 1467.28 4263.67 1275.4C4233.58 1102.34 4071.8 902.939 3958.93 902.939C3906.26 902.939 3898.74 929.275 3917.55 1049.67Z" fill="#460000"/>
</svg>
